<?xml version="1.0" encoding="utf-8"?>
<!-- Generator: Adobe Illustrator 18.0.0, SVG Export Plug-In . SVG Version: 6.00 Build 0)  -->
<!DOCTYPE svg PUBLIC "-//W3C//DTD SVG 1.1//EN" "http://www.w3.org/Graphics/SVG/1.1/DTD/svg11.dtd">
<svg version="1.1" id="圖層_1" xmlns="http://www.w3.org/2000/svg" xmlns:xlink="http://www.w3.org/1999/xlink" x="0px" y="0px"
	 viewBox="937.5 478 48 48" enable-background="new 937.5 478 48 48" xml:space="preserve">
<g>
	<g>
		<path fill="#555555" d="M961.5,478c-9.7,0-17.7,7.9-17.7,17.7c0,2.5,0.5,5,1.5,7.2c4.4,9.7,12.9,19.9,15.4,22.8
			c0.2,0.2,0.5,0.3,0.7,0.3s0.6-0.1,0.7-0.3c2.5-2.9,11-13.1,15.4-22.8c1-2.2,1.5-4.7,1.5-7.2C979.2,485.9,971.2,478,961.5,478z
			 M961.5,504.9c-5.1,0-9.2-4.1-9.2-9.2c0-5.1,4.1-9.2,9.2-9.2s9.2,4.1,9.2,9.2C970.7,500.7,966.6,504.9,961.5,504.9z"/>
	</g>
</g>
</svg>
